<svg xmlns="http://www.w3.org/2000/svg" version="1.1" xmlns:xlink="http://www.w3.org/1999/xlink" xmlns:svgjs="http://svgjs.dev/svgjs" width="1000" height="300" viewBox="0 0 1000 300"><g transform="matrix(1,0,0,1,-0.6060606060606233,0.2944157800394578)"><svg viewBox="0 0 396 119" data-background-color="#ffffff" preserveAspectRatio="xMidYMid meet" height="300" width="1000" xmlns="http://www.w3.org/2000/svg" xmlns:xlink="http://www.w3.org/1999/xlink"><g id="tight-bounds" transform="matrix(1,0,0,1,0.2400000000000091,-0.1167849260823175)"><svg viewBox="0 0 395.52 119.23356985216465" height="119.23356985216465" width="395.52"><g><svg viewBox="0 0 395.52 119.23356985216465" height="119.23356985216465" width="395.52"><g><svg viewBox="0 0 395.52 119.23356985216465" height="119.23356985216465" width="395.52"><g id="textblocktransform"><svg viewBox="0 0 395.52 119.23356985216465" height="119.23356985216465" width="395.52" id="textblock"><g><svg viewBox="0 0 395.52 70.3782780134764" height="70.3782780134764" width="395.52"><g transform="matrix(1,0,0,1,0,0)"><svg width="395.52" viewBox="3.95 -34.85 200.34 35.65" height="70.3782780134764" data-palette-color="#000000"><path d="M20.5-18.35Q23.45-17.6 25.05-15.45 26.65-13.3 26.65-9.8L26.65-9.8Q26.65-5.25 23.9-2.63 21.15 0 16.35 0L16.35 0 3.95 0 3.95-34.1 15.2-34.1Q19.75-34.1 22.35-31.73 24.95-29.35 24.95-25.4L24.95-25.4Q24.95-22.85 23.8-21.03 22.65-19.2 20.5-18.35L20.5-18.35ZM7.7-30.95L7.7-19.55 15.65-19.55Q21-19.55 21-25.4L21-25.4Q21-28.05 19.45-29.5 17.9-30.95 15.15-30.95L15.15-30.95 7.7-30.95ZM15.85-3.1Q19.05-3.1 20.88-4.9 22.7-6.7 22.7-9.8L22.7-9.8Q22.7-12.9 20.88-14.68 19.05-16.45 15.85-16.45L15.85-16.45 7.7-16.45 7.7-3.1 15.85-3.1ZM45.3 0.8Q39 0.8 35.85-2.63 32.7-6.05 32.7-12.65L32.7-12.65 32.7-34.1 36.45-34.1 36.45-12.65Q36.45-2.6 45.3-2.6L45.3-2.6Q49.3-2.6 51.62-5.2 53.95-7.8 53.95-12.65L53.95-12.65 53.95-34.1 57.7-34.1 57.7-12.65Q57.7-6.15 54.42-2.68 51.15 0.8 45.3 0.8L45.3 0.8ZM77.05 0.8Q73.3 0.8 69.75-1.07 66.2-2.95 63.85-6.15L63.85-6.15 66.9-8.85Q68.7-6 71.5-4.33 74.3-2.65 77.55-2.65L77.55-2.65Q81.1-2.65 82.95-4.23 84.8-5.8 84.8-8.5L84.8-8.5Q84.8-11.45 82.82-13.03 80.85-14.6 76.55-15.8L76.55-15.8Q65.75-18.45 65.75-25.6L65.75-25.6Q65.75-30.05 68.65-32.45 71.55-34.85 76.7-34.85L76.7-34.85Q80.45-34.85 83.42-33.45 86.4-32.05 88.75-29.15L88.75-29.15 85.8-26.65Q84-29.1 81.85-30.28 79.7-31.45 76.7-31.45L76.7-31.45Q73.55-31.45 71.55-29.98 69.55-28.5 69.55-25.95L69.55-25.95Q69.55-23.35 71.4-21.83 73.25-20.3 77.65-19.25L77.65-19.25Q82.85-17.85 85.72-15.4 88.6-12.95 88.6-8.5L88.6-8.5Q88.6-5.75 87.2-3.65 85.8-1.55 83.17-0.38 80.55 0.8 77.05 0.8L77.05 0.8ZM98.59 0L94.84 0 94.84-34.1 98.59-34.1 98.59-19.35 116.59-19.35 116.59-34.1 120.34-34.1 120.34 0 116.59 0 116.59-16.25 98.59-16.25 98.59 0ZM137.44 0L127.09 0 127.09-3.3 130.39-3.3 130.39-30.8 127.09-30.8 127.09-34.1 137.44-34.1 137.44-30.8 134.14-30.8 134.14-3.3 137.44-3.3 137.44 0ZM144.19 0L144.19-34.1 152.64-34.1Q157.89-34.1 161.69-32.08 165.49-30.05 167.49-26.2 169.49-22.35 169.49-17L169.49-17Q169.49-9 165.04-4.5 160.59 0 152.64 0L152.64 0 144.19 0ZM147.94-3.4L152.54-3.4Q158.64-3.4 162.09-6.75 165.54-10.1 165.54-17L165.54-17Q165.54-23.95 162.09-27.3 158.64-30.65 152.54-30.65L152.54-30.65 147.94-30.65 147.94-3.4ZM189.64 0.8Q185.39 0.8 182.06-1.48 178.74-3.75 176.86-7.8 174.99-11.85 174.99-17L174.99-17Q174.99-22.15 176.86-26.23 178.74-30.3 182.06-32.58 185.39-34.85 189.64-34.85L189.64-34.85Q193.89-34.85 197.21-32.58 200.54-30.3 202.41-26.23 204.29-22.15 204.29-16.95L204.29-16.95Q204.29-11.8 202.41-7.78 200.54-3.75 197.21-1.48 193.89 0.8 189.64 0.8L189.64 0.8ZM189.64-2.65Q192.74-2.65 195.21-4.48 197.69-6.3 199.09-9.58 200.49-12.85 200.49-17L200.49-17Q200.49-21.15 199.09-24.45 197.69-27.75 195.21-29.6 192.74-31.45 189.64-31.45L189.64-31.45Q186.54-31.45 184.06-29.6 181.59-27.75 180.19-24.45 178.79-21.15 178.79-17L178.79-17Q178.79-12.85 180.19-9.58 181.59-6.3 184.06-4.48 186.54-2.65 189.64-2.65L189.64-2.65Z" opacity="1" transform="matrix(1,0,0,1,0,0)" fill="#000000" class="wordmark-text-0" data-fill-palette-color="primary" id="text-0"></path></svg></g></svg></g><g transform="matrix(1,0,0,1,0,86.99290037378586)"><svg viewBox="0 0 232.209792 32.240669478378784" height="32.240669478378784" width="232.209792"><g transform="matrix(1,0,0,1,0,0)"><svg width="232.209792" viewBox="3.99 -35.39 335.51 46.59" height="32.240669478378784" data-palette-color="#505153"><path d="M39.56-16.25L39.56 0 35.79 0 35.79-16.23Q35.79-22.17 30.56-22.17L30.56-22.17Q27.02-22.17 25.34-20.15 23.66-18.12 23.66-13.93L23.66-13.93 23.66 0 19.89 0 19.89-16.23Q19.89-19.24 18.6-20.7 17.32-22.17 14.64-22.17L14.64-22.17Q11.05-22.17 9.42-20.03 7.79-17.9 7.79-13.07L7.79-13.07 7.79 0 3.99 0 3.99-24.92 7.08-24.92 7.68-21.51 7.86-21.51Q8.95-23.33 10.89-24.36 12.84-25.38 15.24-25.38L15.24-25.38Q21.08-25.38 22.88-21.16L22.88-21.16 23.08-21.16Q24.22-23.13 26.33-24.25 28.44-25.38 31.12-25.38L31.12-25.38Q35.41-25.38 37.49-23.18 39.56-20.98 39.56-16.25L39.56-16.25ZM57.86 0.46L57.86 0.46Q52.32 0.46 49.11-2.91L49.11-2.91Q45.93-6.27 45.93-12.29 45.93-18.3 48.89-21.84L48.89-21.84Q51.89-25.38 56.73-25.38 61.57-25.38 64.3-22.3 67.03-19.21 67.03-14.18L67.03-14.18 67.03-11.78 49.85-11.78Q49.97-7.41 52.07-5.12 54.17-2.83 58.12-2.83 62.08-2.83 65.95-4.52L65.95-4.52 65.95-1.16Q64-0.3 62.18 0.08 60.36 0.46 57.86 0.46ZM49.95-14.86L62.99-14.86Q62.99-18.43 61.4-20.32 59.81-22.22 56.84-22.22 53.87-22.22 52.06-20.27 50.25-18.33 49.95-14.86L49.95-14.86ZM94.31-16.25L94.31 0 90.52 0 90.52-16.13Q90.52-19.21 89.13-20.69 87.74-22.17 84.8-22.17L84.8-22.17Q80.88-22.17 79.06-20.06 77.24-17.95 77.24-13.07L77.24-13.07 77.24 0 73.45 0 73.45-24.92 76.54-24.92 77.14-21.51 77.32-21.51Q78.48-23.33 80.58-24.36 82.68-25.38 85.26-25.38L85.26-25.38Q89.81-25.38 92.06-23.18 94.31-20.98 94.31-16.25L94.31-16.25ZM103.08-21.26L102.14-33.27 106.36-33.27 105.45-21.26 103.08-21.26ZM129.62-6.8L129.62-6.8Q129.62-3.31 127.02-1.43 124.43 0.46 119.61 0.46 114.78 0.46 112-1.11L112-1.11 112-4.63Q115.89-2.65 119.83-2.65L119.83-2.65Q125.98-2.65 125.98-6.47L125.98-6.47Q125.98-7.94 124.69-8.99 123.4-10.04 119.88-11.36 116.37-12.69 114.83-13.68L114.83-13.68Q111.92-15.65 111.92-18.76 111.92-21.87 114.4-23.62 116.88-25.38 121.08-25.38 125.29-25.38 129.09-23.76L129.09-23.76 127.75-20.68Q124.03-22.22 121.16-22.22 118.29-22.22 116.91-21.4 115.54-20.58 115.54-19.06L115.54-19.06Q115.54-18.1 116.03-17.38 116.52-16.66 117.66-16.01 118.8-15.37 122.06-14.18L122.06-14.18Q126.51-12.54 128.06-10.91 129.62-9.28 129.62-6.8ZM152.97-21.61Q155.57-25.35 160.65-25.35 165.73-25.35 168.44-21.98 171.14-18.6 171.14-12.46 171.14-6.32 168.4-2.93 165.66 0.46 160.64 0.46 155.62 0.46 152.97-3.21L152.97-3.21 152.69-3.21 151.88 0 149.18 0 149.18-35.39 152.97-35.39 152.97-26.79Q152.97-23.76 152.79-21.61L152.79-21.61 152.97-21.61ZM165.51-5.22Q167.22-7.74 167.22-12.58 167.22-17.42 165.52-19.79 163.81-22.17 160.08-22.17 156.36-22.17 154.66-19.97 152.97-17.77 152.97-12.5 152.97-7.23 154.71-4.97 156.46-2.7 160.32-2.7L160.32-2.7Q163.79-2.7 165.51-5.22ZM179.39-21.99Q182.46-25.38 187.77-25.38 193.08-25.38 196.17-21.9 199.25-18.43 199.25-12.42 199.25-6.42 196.17-2.96L196.17-2.96Q193.08 0.46 187.7 0.46L187.7 0.46Q182.62 0.51 179.43-3.06 176.25-6.62 176.32-12.49L176.32-12.49Q176.32-18.6 179.39-21.99ZM187.72-22.17L187.72-22.17Q180.24-22.17 180.24-12.49L180.24-12.49Q180.24-7.71 182.15-5.21 184.06-2.7 187.77-2.7 191.49-2.7 193.41-5.19 195.33-7.68 195.33-12.47 195.33-17.26 193.41-19.72 191.49-22.17 187.72-22.17ZM205.59-8.62L205.59-24.92 209.41-24.92 209.41-8.75Q209.41-5.69 210.81-4.2 212.21-2.7 215.15-2.7L215.15-2.7Q219.06-2.7 220.86-4.85 222.65-7 222.65-11.83L222.65-11.83 222.65-24.92 226.45-24.92 226.45 0 223.34 0 222.78-3.34 222.58-3.34Q221.42-1.52 219.37-0.53 217.32 0.46 214.67 0.46L214.67 0.46Q210.07 0.46 207.83-1.73 205.59-3.92 205.59-8.62L205.59-8.62ZM238.5-21.99L238.5-7.33Q238.5-5.08 239.55-3.87 240.6-2.65 242.43-2.65 244.26-2.65 245.91-3.11L245.91-3.11 245.91-0.23Q245.33 0.05 244.08 0.25 242.82 0.46 241.94 0.46L241.94 0.46Q234.71 0.46 234.71-7.15L234.71-7.15 234.71-21.99 231.15-21.99 231.15-23.81 234.71-25.38 236.3-30.71 238.5-30.71 238.5-24.92 245.73-24.92 245.73-21.99 238.5-21.99ZM254.4-29.82Q253.77-29.17 252.78-29.17 251.8-29.17 251.19-29.82 250.58-30.46 250.58-31.7 250.58-32.94 251.19-33.57 251.8-34.2 252.78-34.2 253.77-34.2 254.4-33.56 255.03-32.91 255.03-31.69 255.03-30.46 254.4-29.82ZM250.89-24.92L254.68-24.92 254.68 0 250.89 0 250.89-24.92ZM271.51 0.46L271.51 0.46Q266.71 0.46 263.98-2.93L263.98-2.93Q261.27-6.32 261.27-12.42 261.27-18.53 264-21.95 266.73-25.38 271.74-25.38 276.74-25.38 279.47-21.51L279.47-21.51 279.7-21.51 280.23-24.92 283.21-24.92 283.21 11.2 279.45 11.2 279.45 0.53Q279.45-1.82 279.7-3.34L279.7-3.34 279.4-3.34Q276.77 0.46 271.51 0.46ZM265.19-12.36L265.19-12.36Q265.19-2.7 272.27-2.7L272.27-2.7Q275.86-2.7 277.58-4.73L277.58-4.73Q279.35-6.75 279.45-11.55L279.45-11.55 279.45-12.39Q279.45-17.59 277.66-19.91 275.88-22.22 272.04-22.22L272.04-22.22Q268.73-22.22 266.96-19.65 265.19-17.09 265.19-12.36ZM290.95-8.62L290.95-24.92 294.76-24.92 294.76-8.75Q294.76-5.69 296.17-4.2 297.57-2.7 300.5-2.7L300.5-2.7Q304.42-2.7 306.21-4.85 308.01-7 308.01-11.83L308.01-11.83 308.01-24.92 311.8-24.92 311.8 0 308.69 0 308.13-3.34 307.93-3.34Q306.77-1.52 304.72-0.53 302.67 0.46 300.02 0.46L300.02 0.46Q295.42 0.46 293.18-1.73 290.95-3.92 290.95-8.62L290.95-8.62ZM330.33 0.46L330.33 0.46Q324.79 0.46 321.58-2.91L321.58-2.91Q318.4-6.27 318.4-12.29 318.4-18.3 321.35-21.84L321.35-21.84Q324.36-25.38 329.2-25.38 334.04-25.38 336.77-22.3 339.5-19.21 339.5-14.18L339.5-14.18 339.5-11.78 322.31-11.78Q322.44-7.41 324.54-5.12 326.64-2.83 330.59-2.83 334.55-2.83 338.42-4.52L338.42-4.52 338.42-1.16Q336.47-0.3 334.65 0.08 332.83 0.46 330.33 0.46ZM322.41-14.86L335.46-14.86Q335.46-18.43 333.87-20.32 332.27-22.22 329.3-22.22 326.33-22.22 324.53-20.27 322.72-18.33 322.41-14.86L322.41-14.86Z" opacity="1" transform="matrix(1,0,0,1,0,0)" fill="#505153" class="slogan-text-1" data-fill-palette-color="secondary" id="text-1"></path></svg></g></svg></g></svg></g></svg></g></svg></g><defs></defs></svg><rect width="395.52" height="119.23356985216465" fill="none" stroke="none" visibility="hidden"></rect></g></svg></g></svg>